<svg width="311" height="91" viewBox="0 0 311 91" fill="none" xmlns="http://www.w3.org/2000/svg">
<g clip-path="url(#clip0_11_2)">
<path d="M42.39 0.87989C43.2509 0.307995 44.2614 0.00292969 45.295 0.00292969C46.3285 0.00292969 47.3391 0.307995 48.2 0.87989C52.6543 3.69124 56.9292 6.77721 61 10.1199C61 10.1199 62.11 10.8899 62.14 9.57989C62.14 9.57989 61.96 5.71989 62.43 4.57989C62.5786 4.11923 62.8699 3.71781 63.2619 3.43375C63.6538 3.1497 64.1259 2.99774 64.61 2.99989C64.61 2.99989 69.61 3.24989 72.85 3.67989C73.5444 3.78939 74.1821 4.12879 74.6607 4.64371C75.1394 5.15863 75.4314 5.8193 75.49 6.51989C75.49 6.51989 77.55 20.2899 78 25.2299C78 25.2299 78.4 27.7499 82 32.0199C82 32.0199 89.36 42.3499 90.27 44.3899C90.27 44.3899 92 47.9899 88.27 48.4599C88.27 48.4599 81.5 49.1399 80.86 49.2999C80.4166 49.343 80.0081 49.5594 79.7234 49.9021C79.4388 50.2449 79.301 50.6861 79.34 51.1299C79.34 51.1299 79 74.9999 77.25 86.4799C77.25 86.4799 76.8 91.0299 74.25 90.9199C74.25 90.9199 67.25 90.6899 65.69 90.7399C65.69 90.7399 64.98 90.7399 65.09 89.8099C65.09 89.8099 68.63 52.5699 66.22 33.7299C66.22 33.7299 66.13 31.2999 64.22 30.7999C64.22 30.7999 62.54 30.1199 60.92 32.3499C53.913 42.1662 50.0748 53.8903 49.92 65.9499C49.92 65.9499 49.72 71.9499 50.63 73.4299C50.63 73.4299 51.19 74.4299 54.07 74.7099L57.72 75.1999C57.72 75.1999 58.4 75.1999 58.34 76.0899C58.34 76.0899 57.5 87.0099 57.26 88.9499C57.2535 89.3922 57.1654 89.8296 57 90.2399C57 90.2399 56.87 90.6099 55.72 90.5699C55.72 90.5699 39.66 90.4499 37.85 90.5699C37.85 90.5699 37.09 90.6499 36.93 90.1799C36.77 89.7099 35.81 76.0699 35.85 74.1799C35.8296 73.9759 35.8723 73.7706 35.9725 73.5917C36.0727 73.4128 36.2254 73.2691 36.41 73.1799C37.6388 72.4097 38.678 71.3722 39.4503 70.1446C40.2225 68.917 40.7078 67.531 40.87 66.0899C41.0832 64.0136 41.1267 61.9233 41 59.8399C41 59.8399 41.59 38.8399 41.74 35.5299C41.74 35.5299 41.87 34.3999 40.38 34.1799C40.0274 34.095 39.6556 34.1523 39.3449 34.3395C39.0343 34.5266 38.8098 34.8285 38.72 35.1799V35.3099C38.72 35.3099 37.72 49.1299 37.88 54.6299C37.88 54.6299 38.23 58.2099 35.76 58.2799C35.76 58.2799 33.35 58.6399 33.24 55.6699C33.24 55.6699 33.42 42.2299 34 35.5899C34.0111 35.2242 33.8796 34.8684 33.6333 34.5979C33.387 34.3273 33.0451 34.1631 32.68 34.1399C32.2981 34.0763 31.9065 34.167 31.5915 34.392C31.2764 34.617 31.0637 34.958 31 35.3399V35.4599C31 35.4599 30 48.3099 30.16 55.0999C30.16 55.0999 30.46 58.3899 27.83 58.2699C27.83 58.2699 25.64 58.5299 25.51 55.6099C25.51 55.6099 26.11 37.2099 26.27 35.7799C26.2967 35.5868 26.285 35.3903 26.2356 35.2017C26.1862 35.0131 26.1 34.8362 25.982 34.681C25.864 34.5258 25.7165 34.3955 25.548 34.2975C25.3794 34.1995 25.1932 34.1357 25 34.1099H24.8C24.6172 34.0832 24.4309 34.0931 24.252 34.1392C24.0732 34.1853 23.9053 34.2666 23.7582 34.3783C23.611 34.4901 23.4877 34.63 23.3953 34.7899C23.3029 34.9499 23.2433 35.1266 23.22 35.3099V35.4699C23.22 35.4699 22.22 57.4699 22.38 63.9299C22.38 63.9299 22.29 70.5799 27.19 73.2699C27.19 73.2699 27.91 73.6899 27.93 74.2699C27.93 74.2699 28.48 85.9499 28.93 89.7099C28.93 89.7099 29.11 90.6099 28.31 90.6099L16 90.9999C15.355 90.9959 14.7357 90.7468 14.2677 90.3029C13.7997 89.859 13.518 89.2538 13.48 88.6099C11.931 76.2487 11.2193 63.797 11.35 51.3399C11.3954 50.8793 11.2666 50.4184 10.9889 50.0482C10.7112 49.6779 10.3049 49.4252 9.84997 49.3399C9.84997 49.3399 3.52997 48.7499 1.99997 48.3399C1.66358 48.258 1.34675 48.1103 1.06779 47.9053C0.788832 47.7002 0.553279 47.4419 0.374745 47.1453C0.196211 46.8486 0.0782372 46.5196 0.0276412 46.1771C-0.0229548 45.8346 -0.00516918 45.4855 0.07997 45.1499C0.140198 44.9141 0.234526 44.6884 0.35997 44.4799C10.6467 26.7681 25.0671 11.8089 42.39 0.87989Z" fill="#1E1E1E"/>
<path d="M176.44 32C176.326 31.8418 176.175 31.713 176.002 31.6243C175.828 31.5356 175.635 31.4896 175.44 31.49H164.56L151.21 76.65L146.21 54.71L161.7 33.56C161.808 33.4243 161.886 33.2677 161.93 33.1L162.2 32.17C162.221 32.1018 162.229 32.0299 162.221 31.9588C162.214 31.8876 162.193 31.8187 162.158 31.7561C162.123 31.6935 162.077 31.6385 162.02 31.5945C161.964 31.5505 161.899 31.5184 161.83 31.5C161.781 31.4895 161.729 31.4895 161.68 31.5H150.68L138.76 48.84L143.82 33.12C143.916 32.7978 143.881 32.4505 143.722 32.1543C143.562 31.8581 143.292 31.6372 142.97 31.54C142.85 31.5032 142.725 31.4863 142.6 31.49H131.67L122.21 63.6C122.42 58.09 118.14 53.74 115.65 50.99C113.65 48.75 112.42 47.16 112.65 45.39C112.804 44.2106 113.368 43.1231 114.244 42.3185C115.12 41.5138 116.252 41.0435 117.44 40.99C120.16 40.77 121.33 41.61 123.06 42.42C123.262 42.5098 123.479 42.5607 123.7 42.57C123.878 42.5678 124.054 42.5339 124.22 42.47C124.402 42.401 124.566 42.2913 124.7 42.1492C124.833 42.007 124.933 41.8363 124.99 41.65L127.53 33.06L125.77 32.24L125.51 32.12H125.43C123.339 31.2258 121.084 30.7828 118.81 30.82C109.24 30.82 100.53 37.67 99.09 46.1C98.09 52 101.86 56.16 104.62 59.2L104.86 59.47C106.86 61.61 108.24 63.27 107.86 65.19C107.4 67.89 104.78 69.43 102.25 69.64C99.47 69.87 97.73 69.09 95.56 68.13C95.1811 67.9049 94.734 67.8233 94.3 67.9C94.0923 67.9623 93.9029 68.0739 93.7479 68.2254C93.5928 68.377 93.4769 68.5638 93.41 68.77L91 77.07L90.69 78.13C93.9212 79.643 97.4329 80.4639 101 80.54C109.16 80.54 116.21 77.41 120.4 69.85L117.93 78.27C117.883 78.4296 117.867 78.5969 117.885 78.7625C117.903 78.928 117.953 79.0883 118.033 79.2343C118.113 79.3803 118.221 79.509 118.351 79.6129C118.481 79.7169 118.63 79.7941 118.79 79.84C118.906 79.8794 119.028 79.8997 119.15 79.9H130.08L132.81 70.63L136.13 65.84L138.69 78.84C138.754 79.124 138.912 79.3778 139.139 79.5595C139.367 79.7413 139.649 79.8403 139.94 79.84H162.94L176.69 33.1C176.748 32.9108 176.76 32.7107 176.725 32.516C176.69 32.3213 176.61 32.1376 176.49 31.98L176.44 32Z" fill="#1E1E1E"/>
<path d="M190.75 41.9398H194.83C195.107 41.9287 195.384 41.9755 195.642 42.077C195.9 42.1786 196.135 42.3328 196.33 42.5298C196.66 42.9061 196.903 43.3499 197.043 43.8302C197.183 44.3104 197.216 44.8154 197.14 45.3098C196.897 47.8784 196.221 50.3873 195.14 52.7298C193.79 55.7298 192.54 57.9798 188.98 58.3898H185.89L190.75 41.9398ZM182.87 68.7598H187.62C199.08 68.9098 204.88 60.8598 207.47 52.1198C208.336 49.582 208.851 46.9374 209 44.2598C209.171 40.9218 208.038 37.6479 205.84 35.1298C204.781 33.9688 203.489 33.0444 202.049 32.4171C200.608 31.7898 199.051 31.4738 197.48 31.4898H179.41L178.64 34.0498C178.607 34.167 178.598 34.2899 178.616 34.4105C178.633 34.531 178.675 34.6467 178.74 34.7498L179.25 35.5598C179.502 35.9496 179.664 36.39 179.726 36.8497C179.789 37.3094 179.749 37.7772 179.61 38.2198L167.87 78.2198C167.811 78.4083 167.797 78.608 167.83 78.8027C167.863 78.9973 167.942 79.1814 168.06 79.3398C168.176 79.4965 168.327 79.6248 168.5 79.7148C168.673 79.8049 168.865 79.8545 169.06 79.8598H179.58L182.86 68.7598H182.87Z" fill="#1E1E1E"/>
<path d="M218.26 56.4202H219.79C221.27 56.4202 222.54 57.7302 222.34 60.9702C222.14 64.2102 219.57 75.1802 214.44 75.1802H212.74L218.26 56.4202ZM206.55 79.8302H213.22C223.88 79.8302 227.59 66.4602 227.93 60.8302C228.3 54.6702 224.87 51.6802 221.13 51.6802H214L206 79.0002C205.957 79.1527 205.976 79.3161 206.052 79.4547C206.129 79.5934 206.258 79.696 206.41 79.7402C206.466 79.7497 206.524 79.7497 206.58 79.7402L206.55 79.8302Z" fill="#1E1E1E"/>
<path d="M222.84 47.9402H225.43L227.43 41.1302H230.55L228.7 47.4702C228.675 47.5616 228.688 47.6591 228.735 47.7415C228.781 47.8239 228.859 47.8845 228.95 47.9102H229.05H231.64L236.12 32.6102C236.134 32.5649 236.139 32.5173 236.134 32.4701C236.13 32.4229 236.116 32.3771 236.093 32.3353C236.071 32.2935 236.041 32.2565 236.004 32.2265C235.968 32.1964 235.925 32.1739 235.88 32.1602H233.21L231.36 38.5202H228.21L229.93 32.6302C229.944 32.5849 229.949 32.5373 229.944 32.4901C229.94 32.4429 229.926 32.3971 229.903 32.3553C229.881 32.3135 229.851 32.2765 229.814 32.2465C229.778 32.2164 229.735 32.1939 229.69 32.1802H227L222.52 47.4802C222.508 47.5274 222.506 47.5766 222.513 47.6249C222.52 47.6731 222.536 47.7195 222.561 47.7613C222.586 47.8031 222.62 47.8396 222.659 47.8686C222.698 47.8975 222.743 47.9185 222.79 47.9302H222.85L222.84 47.9402Z" fill="#1E1E1E"/>
<path d="M234.61 47.8701H241.21L241.85 45.7101C241.883 45.6266 241.881 45.5334 241.846 45.451C241.81 45.3685 241.743 45.3035 241.66 45.2701C241.608 45.2551 241.552 45.2551 241.5 45.2701H237.92L239.21 41.1801H242.46L243.1 39.0001C243.114 38.9548 243.119 38.9072 243.114 38.8601C243.11 38.8129 243.096 38.7671 243.073 38.7253C243.051 38.6835 243.021 38.6465 242.984 38.6164C242.948 38.5864 242.905 38.5639 242.86 38.5501H240L241.13 34.7501H245.13L245.75 32.5901C245.764 32.5448 245.769 32.4972 245.764 32.4501C245.76 32.4029 245.746 32.3571 245.723 32.3153C245.701 32.2735 245.671 32.2365 245.634 32.2064C245.598 32.1764 245.555 32.1539 245.51 32.1401H238.76L238.68 32.4001L234.28 47.4001C234.262 47.4954 234.281 47.594 234.333 47.6758C234.385 47.7576 234.466 47.8164 234.56 47.8401H234.64L234.61 47.8701Z" fill="#1E1E1E"/>
<path d="M215.62 47.8701H218.21L222.07 34.7301H224.53L225.14 32.5701C225.152 32.5228 225.154 32.4737 225.147 32.4254C225.14 32.3772 225.124 32.3308 225.099 32.289C225.074 32.2471 225.04 32.2107 225.001 32.1817C224.962 32.1527 224.917 32.1318 224.87 32.1201H217.26L216.65 34.2801C216.638 34.3274 216.636 34.3766 216.643 34.4248C216.65 34.4731 216.666 34.5194 216.691 34.5613C216.717 34.6031 216.75 34.6395 216.789 34.6685C216.828 34.6975 216.873 34.7184 216.92 34.7301H219L215.29 47.4101C215.265 47.5016 215.278 47.5991 215.325 47.6815C215.371 47.7638 215.449 47.8244 215.54 47.8501H215.64L215.62 47.8701Z" fill="#1E1E1E"/>
<path d="M234.62 51.7401L226.62 79.0901C226.577 79.2426 226.596 79.406 226.672 79.5446C226.749 79.6833 226.878 79.7859 227.03 79.8301C227.086 79.8396 227.144 79.8396 227.2 79.8301H231.87L239.87 52.4801C239.891 52.4026 239.897 52.3217 239.887 52.242C239.877 52.1623 239.851 52.0854 239.811 52.0157C239.771 51.9461 239.718 51.8849 239.654 51.8359C239.59 51.7869 239.518 51.7509 239.44 51.7301C239.391 51.7195 239.339 51.7195 239.29 51.7301L234.62 51.7401Z" fill="#1E1E1E"/>
<path d="M276.93 51.7402H272.21L268.89 63.0802H263.32L266.41 52.5102C266.431 52.4327 266.437 52.3518 266.427 52.2721C266.417 52.1924 266.391 52.1155 266.351 52.0459C266.311 51.9762 266.258 51.9151 266.194 51.866C266.13 51.817 266.058 51.781 265.98 51.7602C265.931 51.7497 265.879 51.7497 265.83 51.7602H261.21L253.21 79.1102C253.167 79.2627 253.186 79.4261 253.262 79.5647C253.339 79.7034 253.468 79.806 253.62 79.8502C253.676 79.8597 253.734 79.8597 253.79 79.8502H258.47L262 67.7202H267.57L264.19 79.0902C264.153 79.2465 264.176 79.4112 264.256 79.5506C264.336 79.69 264.466 79.7936 264.62 79.8402H264.77H269.45L277.45 52.4902C277.471 52.4114 277.476 52.3292 277.464 52.2484C277.453 52.1677 277.425 52.0901 277.383 52.0201C277.342 51.9502 277.286 51.8894 277.22 51.8413C277.154 51.7933 277.079 51.7589 277 51.7402C276.951 51.7305 276.9 51.7305 276.85 51.7402H276.93Z" fill="#1E1E1E"/>
<path d="M288.91 63.2001H284L286 56.4101H293.2L294.33 52.5001C294.351 52.4226 294.357 52.3417 294.347 52.262C294.337 52.1823 294.311 52.1054 294.271 52.0358C294.231 51.9661 294.178 51.905 294.114 51.8559C294.05 51.8069 293.978 51.7709 293.9 51.7501C293.851 51.7396 293.799 51.7396 293.75 51.7501H281.85L273.85 79.1001C273.807 79.2526 273.826 79.416 273.902 79.5546C273.979 79.6933 274.108 79.7959 274.26 79.8401C274.316 79.8496 274.374 79.8496 274.43 79.8401H286.33L287.46 75.9301C287.481 75.8526 287.487 75.7717 287.477 75.692C287.467 75.6123 287.441 75.5354 287.401 75.4658C287.361 75.3961 287.308 75.335 287.244 75.2859C287.18 75.2369 287.108 75.2009 287.03 75.1801C286.981 75.1696 286.929 75.1696 286.88 75.1801H280.46L282.64 67.8901H288.31L289.49 63.9501C289.511 63.8713 289.516 63.7891 289.504 63.7083C289.493 63.6276 289.465 63.55 289.423 63.48C289.381 63.4101 289.326 63.3493 289.26 63.3012C289.194 63.2531 289.119 63.2188 289.04 63.2001C288.994 63.1898 288.946 63.1898 288.9 63.2001H288.91Z" fill="#1E1E1E"/>
<path d="M247.21 59.37C247.35 58.4759 247.79 57.6559 248.456 57.0438C249.123 56.4317 249.977 56.0637 250.88 56C251.936 55.9403 252.99 56.1287 253.96 56.55C254.176 56.6487 254.423 56.6578 254.646 56.5753C254.869 56.4929 255.05 56.3256 255.15 56.11C255.154 56.0902 255.154 56.0698 255.15 56.05C255.15 55.97 256.27 52.25 256.27 52.25C254.816 51.6095 253.248 51.2694 251.66 51.25C246.66 51.25 241.66 54.95 240.9 60.01C240.36 63.38 242.51 65.79 244.05 67.61C245.26 69 246.24 70.22 245.99 71.78C245.845 72.7467 245.365 73.6318 244.634 74.2807C243.903 74.9296 242.967 75.301 241.99 75.33C240.72 75.4624 239.439 75.2372 238.29 74.68C238.197 74.6228 238.094 74.5849 237.986 74.5686C237.879 74.5522 237.769 74.5577 237.663 74.5848C237.558 74.6119 237.459 74.6599 237.372 74.7261C237.286 74.7923 237.214 74.8753 237.16 74.97C237.112 75.0397 237.079 75.1177 237.06 75.2L235.85 79.35C237.57 80.0103 239.397 80.3492 241.24 80.35C243.854 80.3557 246.386 79.4439 248.396 77.7736C250.407 76.1033 251.767 73.7804 252.24 71.21C252.78 67.8 250.66 65.21 249.12 63.45C248 62 247 60.81 247.22 59.34L247.21 59.37Z" fill="#1E1E1E"/>
<path d="M305.75 51.27C300.75 51.27 295.75 54.97 294.99 60.03C294.45 63.4 296.6 65.81 298.14 67.63C299.35 69.02 300.33 70.24 300.08 71.8C299.935 72.7667 299.455 73.6518 298.724 74.3007C297.993 74.9496 297.057 75.3209 296.08 75.35C294.81 75.4824 293.529 75.2572 292.38 74.7C292.287 74.6428 292.184 74.6049 292.076 74.5886C291.969 74.5722 291.859 74.5777 291.753 74.6048C291.648 74.6319 291.549 74.6799 291.462 74.7461C291.376 74.8123 291.304 74.8952 291.25 74.99C291.202 75.0597 291.169 75.1377 291.15 75.22L289.94 79.37C291.66 80.0303 293.487 80.3692 295.33 80.37C297.944 80.3757 300.476 79.4639 302.487 77.7936C304.497 76.1233 305.857 73.8004 306.33 71.23C306.87 67.82 304.75 65.23 303.21 63.47C302.04 62.08 301.06 60.86 301.3 59.38C301.439 58.4794 301.882 57.6534 302.555 57.0387C303.228 56.4241 304.09 56.0576 305 56C306.056 55.9403 307.11 56.1287 308.08 56.55C308.296 56.6487 308.543 56.6578 308.766 56.5753C308.989 56.4929 309.17 56.3256 309.27 56.11C309.274 56.0902 309.274 56.0698 309.27 56.05C309.27 55.97 310.39 52.25 310.39 52.25C308.933 51.6095 307.362 51.2694 305.77 51.25L305.75 51.27Z" fill="#1E1E1E"/>
</g>
<defs>
<clipPath id="clip0_11_2">
<rect width="310.38" height="91" fill="white"/>
</clipPath>
</defs>
</svg>
